<svg width="50" height="51" viewBox="0 0 50 51" fill="none" xmlns="http://www.w3.org/2000/svg">
<path opacity="0.3" d="M42.1829 11.2143C42.1829 9.24997 41.0839 7.64282 39.7407 7.64282H29.9717C28.6285 7.64282 27.5295 9.24997 27.5295 11.2143V18.3571H42.1829V11.2143ZM22.645 11.2143C22.645 9.24997 21.546 7.64282 20.2028 7.64282H10.4338C9.09057 7.64282 7.99156 9.24997 7.99156 11.2143V18.3571H22.645V11.2143ZM42.1829 25.5H7.99156C6.64833 25.5 5.54932 27.1071 5.54932 29.0714V36.2143H44.6252V29.0714C44.6252 27.1071 43.5262 25.5 42.1829 25.5Z" fill="#16289E"/>
<path d="M47.0691 21.1429V11.2143C47.0691 5.32143 43.772 0.5 39.7423 0.5H29.9734C28.0929 0.5 26.3833 1.57143 25.0889 3.28572C23.7945 1.57143 22.0849 0.5 20.2044 0.5H10.4355C6.40577 0.5 3.10874 5.32143 3.10874 11.2143V21.1429C1.61898 23.1071 0.666504 25.9286 0.666504 29.0714V50.5H5.55098V43.3571H44.6268V50.5H49.5113V29.0714C49.5113 25.9286 48.5588 23.1071 47.0691 21.1429ZM27.5311 11.2143C27.5311 9.25 28.6302 7.64286 29.9734 7.64286H39.7423C41.0856 7.64286 42.1846 9.25 42.1846 11.2143V18.3571H27.5311V11.2143ZM7.99322 11.2143C7.99322 9.25 9.09223 7.64286 10.4355 7.64286H20.2044C21.5477 7.64286 22.6467 9.25 22.6467 11.2143V18.3571H7.99322V11.2143ZM44.6268 36.2143H5.55098V29.0714C5.55098 27.1071 6.64999 25.5 7.99322 25.5H42.1846C43.5278 25.5 44.6268 27.1071 44.6268 29.0714V36.2143Z" fill="#16289E"/>
</svg>
