<svg width="50" height="50" viewBox="0 0 50 50" fill="none" xmlns="http://www.w3.org/2000/svg">
<path opacity="0.3" d="M42.0164 10.7143C42.0164 8.74997 40.9174 7.14282 39.5742 7.14282H29.8052C28.462 7.14282 27.363 8.74997 27.363 10.7143V17.8571H42.0164V10.7143ZM22.4785 10.7143C22.4785 8.74997 21.3795 7.14282 20.0363 7.14282H10.2673C8.92406 7.14282 7.82505 8.74997 7.82505 10.7143V17.8571H22.4785V10.7143ZM42.0164 25H7.82505C6.48182 25 5.38281 26.6071 5.38281 28.5714V35.7143H44.4587V28.5714C44.4587 26.6071 43.3597 25 42.0164 25Z" fill="#16289E"/>
<path d="M46.9026 20.6429V10.7143C46.9026 4.82143 43.6055 0 39.5758 0H29.8069C27.9264 0 26.2168 1.07143 24.9224 2.78572C23.628 1.07143 21.9184 0 20.0379 0H10.269C6.23926 0 2.94224 4.82143 2.94224 10.7143V20.6429C1.45247 22.6071 0.5 25.4286 0.5 28.5714V50H5.38448V42.8571H44.4603V50H49.3448V28.5714C49.3448 25.4286 48.3923 22.6071 46.9026 20.6429ZM27.3646 10.7143C27.3646 8.75 28.4636 7.14286 29.8069 7.14286H39.5758C40.9191 7.14286 42.0181 8.75 42.0181 10.7143V17.8571H27.3646V10.7143ZM7.82672 10.7143C7.82672 8.75 8.92573 7.14286 10.269 7.14286H20.0379C21.3812 7.14286 22.4802 8.75 22.4802 10.7143V17.8571H7.82672V10.7143ZM44.4603 35.7143H5.38448V28.5714C5.38448 26.6071 6.48349 25 7.82672 25H42.0181C43.3613 25 44.4603 26.6071 44.4603 28.5714V35.7143Z" fill="#16289E"/>
</svg>
