<svg width="50" height="50" viewBox="0 0 50 50" fill="none" xmlns="http://www.w3.org/2000/svg">
<path opacity="0.3" d="M42.3499 10.714C42.3499 8.74972 41.2509 7.14258 39.9077 7.14258H30.1387C28.7955 7.14258 27.6965 8.74972 27.6965 10.714V17.8569H42.3499V10.714ZM22.812 10.714C22.812 8.74972 21.713 7.14258 20.3698 7.14258H10.6008C9.25756 7.14258 8.15855 8.74972 8.15855 10.714V17.8569H22.812V10.714ZM42.3499 24.9997H8.15855C6.81532 24.9997 5.71631 26.6069 5.71631 28.5711V35.714H44.7922V28.5711C44.7922 26.6069 43.6932 24.9997 42.3499 24.9997Z" fill="#16289E"/>
<path d="M47.2361 20.6429V10.7143C47.2361 4.82143 43.939 0 39.9093 0H30.1404C28.2599 0 26.5503 1.07143 25.2559 2.78572C23.9615 1.07143 22.2519 0 20.3714 0H10.6025C6.57276 0 3.27574 4.82143 3.27574 10.7143V20.6429C1.78597 22.6071 0.833496 25.4286 0.833496 28.5714V50H5.71798V42.8571H44.7938V50H49.6783V28.5714C49.6783 25.4286 48.7258 22.6071 47.2361 20.6429ZM27.6981 10.7143C27.6981 8.75 28.7971 7.14286 30.1404 7.14286H39.9093C41.2526 7.14286 42.3516 8.75 42.3516 10.7143V17.8571H27.6981V10.7143ZM8.16022 10.7143C8.16022 8.75 9.25922 7.14286 10.6025 7.14286H20.3714C21.7146 7.14286 22.8137 8.75 22.8137 10.7143V17.8571H8.16022V10.7143ZM44.7938 35.7143H5.71798V28.5714C5.71798 26.6071 6.81698 25 8.16022 25H42.3516C43.6948 25 44.7938 26.6071 44.7938 28.5714V35.7143Z" fill="#16289E"/>
</svg>
