<svg width="51" height="51" viewBox="0 0 51 51" fill="none" xmlns="http://www.w3.org/2000/svg">
<path opacity="0.3" d="M42.9455 11.214C42.9455 9.24972 41.8232 7.64258 40.4514 7.64258H30.4749C29.1031 7.64258 27.9808 9.24972 27.9808 11.214V18.3569H42.9455V11.214ZM22.9925 11.214C22.9925 9.24972 21.8702 7.64258 20.4984 7.64258H10.5219C9.15017 7.64258 8.02781 9.24972 8.02781 11.214V18.3569H22.9925V11.214ZM42.9455 25.4997H8.02781C6.65605 25.4997 5.53369 27.1069 5.53369 29.0711V36.214H45.4396V29.0711C45.4396 27.1069 44.3173 25.4997 42.9455 25.4997Z" fill="#16289E"/>
<path d="M47.9337 21.1429V11.2143C47.9337 5.32143 44.5667 0.5 40.4513 0.5H30.4749C28.5544 0.5 26.8085 1.57143 25.4866 3.28572C24.1647 1.57143 22.4189 0.5 20.4984 0.5H10.5219C6.40659 0.5 3.03953 5.32143 3.03953 11.2143V21.1429C1.51812 23.1071 0.54541 25.9286 0.54541 29.0714V50.5H5.53365V43.3571H45.4396V50.5H50.4278V29.0714C50.4278 25.9286 49.4551 23.1071 47.9337 21.1429ZM27.9807 11.2143C27.9807 9.25 29.1031 7.64286 30.4749 7.64286H40.4513C41.8231 7.64286 42.9455 9.25 42.9455 11.2143V18.3571H27.9807V11.2143ZM8.02777 11.2143C8.02777 9.25 9.15013 7.64286 10.5219 7.64286H20.4984C21.8701 7.64286 22.9925 9.25 22.9925 11.2143V18.3571H8.02777V11.2143ZM45.4396 36.2143H5.53365V29.0714C5.53365 27.1071 6.65601 25.5 8.02777 25.5H42.9455C44.3172 25.5 45.4396 27.1071 45.4396 29.0714V36.2143Z" fill="#16289E"/>
</svg>
