<svg width="79" height="72" viewBox="0 0 79 72" fill="none" xmlns="http://www.w3.org/2000/svg">
<path d="M36.2499 0.5H42.7499V7H36.2499V0.5Z" fill="white"/>
<path d="M55.7499 0.5H62.2499V7H55.7499V0.5Z" fill="white"/>
<path d="M16.7499 0.5H23.2499V7H16.7499V0.5Z" fill="white"/>
<path d="M75.25 7H62.25V16.75H55.75V7H42.75V16.75H36.25V7H23.25V16.75H16.75V7H3.75C2.88805 7 2.0614 7.34241 1.4519 7.9519C0.84241 8.5614 0.5 9.38805 0.5 10.25L0.5 68.75C0.5 69.612 0.84241 70.4386 1.4519 71.0481C2.0614 71.6576 2.88805 72 3.75 72H75.25C76.112 72 76.9386 71.6576 77.5481 71.0481C78.1576 70.4386 78.5 69.612 78.5 68.75V10.25C78.5 9.38805 78.1576 8.5614 77.5481 7.9519C76.9386 7.34241 76.112 7 75.25 7ZM60.3613 48.6447L55.75 45.35V59C55.75 59.862 55.4076 60.6886 54.7981 61.2981C54.1886 61.9076 53.362 62.25 52.5 62.25H44.375V49.25C44.375 48.3881 44.0326 47.5614 43.4231 46.9519C42.8136 46.3424 41.987 46 41.125 46H37.875C37.013 46 36.1864 46.3424 35.5769 46.9519C34.9674 47.5614 34.625 48.3881 34.625 49.25V62.25H26.5C25.638 62.25 24.8114 61.9076 24.2019 61.2981C23.5924 60.6886 23.25 59.862 23.25 59V45.35L18.6391 48.6447L14.8609 43.3553L37.6109 27.1053C38.1644 26.7173 38.824 26.5091 39.5 26.5091C40.176 26.5091 40.8356 26.7173 41.3891 27.1053L64.1391 43.3553L60.3613 48.6447Z" fill="white"/>
</svg>
