<svg width="173" height="130" viewBox="0 0 173 130" fill="none" xmlns="http://www.w3.org/2000/svg">
<path d="M54.6178 90.4918L29.5455 65.4136L37.901 57.0581L54.6178 73.769L88.0396 40.3413L96.401 48.7027L54.6178 90.4918Z" fill="#0FA958"/>
<path fill-rule="evenodd" clip-rule="evenodd" d="M0 65C0 29.1023 29.1023 0 65 0C100.898 0 130 29.1023 130 65C130 100.898 100.898 130 65 130C29.1023 130 0 100.898 0 65ZM65 118.182C58.0161 118.182 51.1005 116.806 44.6482 114.134C38.1959 111.461 32.3332 107.544 27.3948 102.605C22.4564 97.6668 18.539 91.8041 15.8664 85.3518C13.1938 78.8995 11.8182 71.9839 11.8182 65C11.8182 58.0161 13.1938 51.1005 15.8664 44.6482C18.539 38.1959 22.4564 32.3332 27.3948 27.3948C32.3332 22.4564 38.1959 18.539 44.6482 15.8664C51.1005 13.1938 58.0161 11.8182 65 11.8182C79.1047 11.8182 92.6317 17.4212 102.605 27.3948C112.579 37.3683 118.182 50.8953 118.182 65C118.182 79.1047 112.579 92.6317 102.605 102.605C92.6317 112.579 79.1047 118.182 65 118.182Z" fill="#0FA958"/>
</svg>
