<svg width="50" height="46" viewBox="0 0 50 46" fill="none" xmlns="http://www.w3.org/2000/svg">
<mask id="mask0_646_5" style="mask-type:luminance" maskUnits="userSpaceOnUse" x="6" y="5" width="39" height="36">
<path d="M18.0313 7.85168C18.3952 7.85169 18.7525 7.94098 19.0661 8.11029C19.3796 8.27961 19.6381 8.52277 19.8146 8.81456L22.3084 12.9334C22.4692 13.1991 22.557 13.4967 22.5641 13.8005C22.5712 14.1043 22.4974 14.4051 22.3492 14.6769L19.9471 19.0837C19.9471 19.0837 20.6435 22.3658 23.5574 25.0385C26.4723 27.7103 30.0398 28.3385 30.0398 28.3385L34.845 26.1351C35.1415 25.999 35.4698 25.9313 35.8013 25.9378C36.1328 25.9443 36.4576 26.0249 36.7475 26.1725L41.254 28.4703C41.5715 28.6324 41.836 28.8694 42.0201 29.1567C42.2042 29.4439 42.3012 29.7711 42.3011 30.1044V34.8467C42.3011 37.2623 39.8541 39.0067 37.3582 38.2346C32.2319 36.6482 24.2741 33.6287 19.2303 29.0041C14.1876 24.3795 10.8934 17.0841 9.16417 12.3828C8.322 10.0953 10.2245 7.85168 12.8591 7.85168H18.0313Z" fill="#555555" stroke="white" stroke-width="4" stroke-linejoin="round"/>
</mask>
<g mask="url(#mask0_646_5)">
<path d="M0.702881 0.666626H49.6421V45.5384H0.702881V0.666626Z" fill="black" fill-opacity="0.5"/>
</g>
</svg>
