<svg width="66" height="68" viewBox="0 0 66 68" fill="none" xmlns="http://www.w3.org/2000/svg">
<mask id="mask0_646_212" style="mask-type:luminance" maskUnits="userSpaceOnUse" x="9" y="9" width="49" height="50">
<path d="M23.4351 11.4478C23.921 11.4478 24.398 11.5795 24.8167 11.8293C25.2354 12.0791 25.5805 12.4378 25.8161 12.8683L29.1461 18.945C29.3608 19.337 29.478 19.7761 29.4875 20.2243C29.4969 20.6725 29.3985 21.1163 29.2005 21.5172L25.9931 28.0187C25.9931 28.0187 26.9229 32.861 30.8138 36.8041C34.706 40.7458 39.4695 41.6726 39.4695 41.6726L45.8857 38.4219C46.2816 38.2211 46.7199 38.1212 47.1626 38.1309C47.6053 38.1405 48.0389 38.2593 48.426 38.4771L54.4434 41.8671C54.8673 42.1063 55.2205 42.4559 55.4663 42.8797C55.7121 43.3036 55.8417 43.7863 55.8415 44.2779V51.2745C55.8415 54.8384 52.5742 57.4119 49.2415 56.2727C42.3964 53.9322 31.7708 49.4775 25.0361 42.6546C18.3026 35.8318 13.904 25.0686 11.5951 18.1327C10.4706 14.7578 13.0109 11.4478 16.5288 11.4478H23.4351Z" fill="#555555" stroke="white" stroke-width="4" stroke-linejoin="round"/>
</mask>
<g mask="url(#mask0_646_212)">
<path d="M0.296997 0.847168H65.6435V67.0482H0.296997V0.847168Z" fill="black" fill-opacity="0.5"/>
</g>
</svg>
