<svg width="50" height="50" viewBox="0 0 50 50" fill="none" xmlns="http://www.w3.org/2000/svg">
<path opacity="0.3" d="M12.5 41.6666H37.5V20.8333H12.5V41.6666ZM25 27.0833C27.2917 27.0833 29.1667 28.9583 29.1667 31.2499C29.1667 33.5416 27.2917 35.4166 25 35.4166C22.7083 35.4166 20.8333 33.5416 20.8333 31.2499C20.8333 28.9583 22.7083 27.0833 25 27.0833Z" fill="black" fill-opacity="0.5"/>
<path d="M37.5 16.6666H35.4167V12.4999C35.4167 6.74992 30.75 2.08325 25 2.08325C19.25 2.08325 14.5834 6.74992 14.5834 12.4999V16.6666H12.5C10.2084 16.6666 8.33337 18.5416 8.33337 20.8333V41.6666C8.33337 43.9583 10.2084 45.8333 12.5 45.8333H37.5C39.7917 45.8333 41.6667 43.9583 41.6667 41.6666V20.8333C41.6667 18.5416 39.7917 16.6666 37.5 16.6666ZM18.75 12.4999C18.75 9.04158 21.5417 6.24992 25 6.24992C28.4584 6.24992 31.25 9.04158 31.25 12.4999V16.6666H18.75V12.4999ZM37.5 41.6666H12.5V20.8333H37.5V41.6666ZM25 35.4166C27.2917 35.4166 29.1667 33.5416 29.1667 31.2499C29.1667 28.9583 27.2917 27.0833 25 27.0833C22.7084 27.0833 20.8334 28.9583 20.8334 31.2499C20.8334 33.5416 22.7084 35.4166 25 35.4166Z" fill="black" fill-opacity="0.5"/>
</svg>
