<svg width="54" height="71" viewBox="0 0 54 71" fill="none" xmlns="http://www.w3.org/2000/svg">
<path opacity="0.3" d="M42.6389 23.6666C42.6389 22.0395 41.6361 20.7083 40.4104 20.7083H31.4966C30.2709 20.7083 29.2681 22.0395 29.2681 23.6666V29.5833H42.6389V23.6666ZM24.8112 23.6666C24.8112 22.0395 23.8084 20.7083 22.5827 20.7083H13.6688C12.4432 20.7083 11.4404 22.0395 11.4404 23.6666V29.5833H24.8112V23.6666ZM42.6389 35.4999H11.4404C10.2147 35.4999 9.21191 36.8312 9.21191 38.4583V44.3749H44.8673V38.4583C44.8673 36.8312 43.8645 35.4999 42.6389 35.4999Z" fill="black"/>
<path d="M47.0957 31.8909V23.6667C47.0957 18.7855 44.0873 14.7917 40.4103 14.7917H31.4965C29.7805 14.7917 28.2206 15.6792 27.0395 17.0992C25.8584 15.6792 24.2985 14.7917 22.5826 14.7917H13.6687C9.99177 14.7917 6.98335 18.7855 6.98335 23.6667V31.8909C5.62398 33.518 4.75488 35.8551 4.75488 38.4584V56.2084H9.21181V50.2917H44.8672V56.2084H49.3242V38.4584C49.3242 35.8551 48.4551 33.518 47.0957 31.8909ZM29.268 23.6667C29.268 22.0397 30.2708 20.7084 31.4965 20.7084H40.4103C41.636 20.7084 42.6388 22.0397 42.6388 23.6667V29.5834H29.268V23.6667ZM11.4403 23.6667C11.4403 22.0397 12.4431 20.7084 13.6687 20.7084H22.5826C23.8083 20.7084 24.8111 22.0397 24.8111 23.6667V29.5834H11.4403V23.6667ZM44.8672 44.3751H9.21181V38.4584C9.21181 36.8313 10.2146 35.5001 11.4403 35.5001H42.6388C43.8644 35.5001 44.8672 36.8313 44.8672 38.4584V44.3751Z" fill="black"/>
</svg>
