<svg width="66" height="73" viewBox="0 0 66 73" fill="none" xmlns="http://www.w3.org/2000/svg">
<path opacity="0.3" d="M54.9109 18.2979H11.3466L33.1287 33.2107L54.9109 18.2979ZM11.3466 24.2749V54.1603H54.9109V24.2749L33.1287 39.2176L11.3466 24.2749Z" fill="black" fill-opacity="0.5"/>
<path d="M54.9109 12.3208H11.3465C8.3515 12.3208 5.901 15.0105 5.901 18.2979V54.1603C5.901 57.4477 8.3515 60.1374 11.3465 60.1374H54.9109C57.906 60.1374 60.3564 57.4477 60.3564 54.1603V18.2979C60.3564 15.0105 57.906 12.3208 54.9109 12.3208ZM54.9109 18.2979L33.1287 33.2107L11.3465 18.2979H54.9109ZM54.9109 54.1603H11.3465V24.275L33.1287 39.2176L54.9109 24.275V54.1603Z" fill="black" fill-opacity="0.5"/>
</svg>
