<svg width="50" height="54" viewBox="0 0 50 54" fill="none" xmlns="http://www.w3.org/2000/svg">
<path opacity="0.3" d="M41.6667 13.3523H8.33337L25 24.4569L41.6667 13.3523ZM8.33337 17.8031V40.0568H41.6667V17.8031L25 28.9299L8.33337 17.8031Z" fill="black" fill-opacity="0.5"/>
<path d="M41.6666 8.90149H8.33329C6.04163 8.90149 4.16663 10.9043 4.16663 13.3522V40.0568C4.16663 42.5047 6.04163 44.5076 8.33329 44.5076H41.6666C43.9583 44.5076 45.8333 42.5047 45.8333 40.0568V13.3522C45.8333 10.9043 43.9583 8.90149 41.6666 8.90149ZM41.6666 13.3522L25 24.4569L8.33329 13.3522H41.6666ZM41.6666 40.0568H8.33329V17.803L25 28.9299L41.6666 17.803V40.0568Z" fill="black" fill-opacity="0.5"/>
</svg>
