<svg width="68" height="71" viewBox="0 0 68 71" fill="none" xmlns="http://www.w3.org/2000/svg">
<path opacity="0.3" d="M53.8333 23.6667C53.8333 22.0396 52.5583 20.7084 50.9999 20.7084H39.6666C38.1083 20.7084 36.8333 22.0396 36.8333 23.6667V29.5834H53.8333V23.6667ZM31.1666 23.6667C31.1666 22.0396 29.8916 20.7084 28.3333 20.7084H16.9999C15.4416 20.7084 14.1666 22.0396 14.1666 23.6667V29.5834H31.1666V23.6667ZM53.8333 35.5H14.1666C12.6083 35.5 11.3333 36.8313 11.3333 38.4584V44.375H56.6666V38.4584C56.6666 36.8313 55.3916 35.5 53.8333 35.5Z" fill="black"/>
<path d="M59.5001 31.8908V23.6666C59.5001 18.7854 55.6751 14.7916 51.0001 14.7916H39.6667C37.4851 14.7916 35.5017 15.6791 34.0001 17.0991C32.4984 15.6791 30.5151 14.7916 28.3334 14.7916H17.0001C12.3251 14.7916 8.50008 18.7854 8.50008 23.6666V31.8908C6.77175 33.5179 5.66675 35.855 5.66675 38.4583V56.2083H11.3334V50.2916H56.6668V56.2083H62.3334V38.4583C62.3334 35.855 61.2284 33.5179 59.5001 31.8908ZM36.8334 23.6666C36.8334 22.0395 38.1084 20.7083 39.6667 20.7083H51.0001C52.5584 20.7083 53.8334 22.0395 53.8334 23.6666V29.5833H36.8334V23.6666ZM14.1667 23.6666C14.1667 22.0395 15.4417 20.7083 17.0001 20.7083H28.3334C29.8918 20.7083 31.1667 22.0395 31.1667 23.6666V29.5833H14.1667V23.6666ZM56.6668 44.375H11.3334V38.4583C11.3334 36.8312 12.6084 35.5 14.1667 35.5H53.8334C55.3918 35.5 56.6668 36.8312 56.6668 38.4583V44.375Z" fill="black"/>
</svg>
