<svg width="50" height="50" viewBox="0 0 50 50" fill="none" xmlns="http://www.w3.org/2000/svg">
<path opacity="0.3" d="M41.6129 12.9874H8.98682L25.2999 23.0955L41.6129 12.9874ZM8.98682 17.0388V37.2954H41.6129V17.0388L25.2999 27.1671L8.98682 17.0388Z" fill="black" fill-opacity="0.5"/>
<path d="M41.6131 8.93604H8.98696C6.74391 8.93604 4.90869 10.7591 4.90869 12.9874V37.2954C4.90869 39.5236 6.74391 41.3467 8.98696 41.3467H41.6131C43.8561 41.3467 45.6913 39.5236 45.6913 37.2954V12.9874C45.6913 10.7591 43.8561 8.93604 41.6131 8.93604ZM41.6131 12.9874L25.3 23.0954L8.98696 12.9874H41.6131ZM41.6131 37.2954H8.98696V17.0387L25.3 27.167L41.6131 17.0387V37.2954Z" fill="black" fill-opacity="0.5"/>
</svg>
