<svg width="50" height="50" viewBox="0 0 50 50" fill="none" xmlns="http://www.w3.org/2000/svg">
<g opacity="0.5">
<path d="M6.25 22.25C6.25 16.6495 6.25 13.8492 7.33993 11.7101C8.29867 9.82847 9.82847 8.29867 11.7101 7.33993C13.8492 6.25 16.6495 6.25 22.25 6.25H27.75C33.3505 6.25 36.1508 6.25 38.2899 7.33993C40.1715 8.29867 41.7013 9.82847 42.6601 11.7101C43.75 13.8492 43.75 16.6495 43.75 22.25V27.75C43.75 33.3505 43.75 36.1508 42.6601 38.2899C41.7013 40.1715 40.1715 41.7013 38.2899 42.6601C36.1508 43.75 33.3505 43.75 27.75 43.75H22.25C16.6495 43.75 13.8492 43.75 11.7101 42.6601C9.82847 41.7013 8.29867 40.1715 7.33993 38.2899C6.25 36.1508 6.25 33.3505 6.25 27.75V22.25Z" stroke="black" stroke-width="5"/>
<circle cx="16.6666" cy="25" r="3.75" stroke="#222222" stroke-width="5"/>
<path d="M20.8334 25H29.1667M35.4167 29.1667V25.15C35.4167 25.0672 35.3495 25 35.2667 25H29.1667M29.1667 25V29.1667" stroke="#222222" stroke-width="5" stroke-linecap="round"/>
</g>
</svg>
