<svg width="1920" height="1903" viewBox="0 0 1920 1903" fill="none" xmlns="http://www.w3.org/2000/svg">
<mask id="mask0_226_91" style="mask-type:alpha" maskUnits="userSpaceOnUse" x="0" y="0" width="1920" height="1903">
<rect width="1920" height="1902.01" fill="#D9D9D9"/>
</mask>
<g mask="url(#mask0_226_91)">
<path fill-rule="evenodd" clip-rule="evenodd" d="M-452 418.816L-90.2386 380.442C73.5375 308.796 348.37 197.316 239.565 146.936C0.52124 36.2511 1419.44 -75.8529 1334.44 116.837C1249.43 309.528 698.585 673.43 933.048 838.23C1164.42 1000.86 2711.56 506.802 2736.74 722.205C2761.92 937.608 2415.25 1631.96 2047.73 1707.2C1746.05 1768.97 1434.41 1591.68 1302.11 1798.48C1161.45 2018.34 -237.591 1638.68 -256.789 1781.49L1731.23 3016L3378 1085.91L3303.13 1049.06C3230.84 1013.48 3083.68 941.048 2936.52 868.614C2786.78 794.91 2991.55 300.903 2844.39 228.469C2697.23 156.036 2494.91 88.3531 2347.75 15.9196C2200.59 -56.5138 2030.9 -48.6279 1883.74 -121.061C1736.58 -193.495 1642.29 -149.266 1495.13 -221.7C1347.97 -294.133 871.118 -147.995 721.376 -221.7C574.216 -294.133 427.056 -366.567 354.767 -402.148L279.896 -439L-452 418.816Z" fill="#16289E"/>
</g>
</svg>
