<svg width="1980" height="1851" viewBox="0 0 1980 1851" fill="none" xmlns="http://www.w3.org/2000/svg">
<mask id="mask0_646_1606" style="mask-type:alpha" maskUnits="userSpaceOnUse" x="0" y="0" width="1980" height="1851">
<rect width="1980" height="1851" fill="#D9D9D9"/>
</mask>
<g mask="url(#mask0_646_1606)">
<path fill-rule="evenodd" clip-rule="evenodd" d="M-466.125 407.583L-93.0586 370.238C75.8355 300.514 359.256 192.024 247.051 142.995C0.537547 35.2788 1463.8 -73.8185 1376.14 113.704C1288.47 301.226 720.415 655.368 962.205 815.748C1200.81 974.014 2796.3 493.209 2822.26 702.835C2848.23 912.46 2490.72 1588.18 2111.72 1661.41C1800.62 1721.52 1479.24 1548.99 1342.8 1750.24C1197.75 1964.21 -245.016 1594.73 -264.814 1733.71L1785.33 2935.11L3483.56 1056.79L3406.35 1020.93C3331.8 986.298 3180.05 915.808 3028.29 845.317C2873.87 773.59 3085.03 292.832 2933.27 222.342C2781.52 151.851 2572.88 85.9833 2421.12 15.4927C2269.36 -54.998 2094.36 -47.3237 1942.61 -117.814C1790.85 -188.305 1693.61 -145.263 1541.86 -215.753C1390.1 -286.244 898.34 -144.026 743.919 -215.753C592.16 -286.244 440.402 -356.735 365.854 -391.362L288.643 -427.226L-466.125 407.583Z" fill="#16289E"/>
</g>
</svg>
