<svg width="67" height="95" viewBox="0 0 67 95" fill="none" xmlns="http://www.w3.org/2000/svg">
<path d="M33.8108 37.6324C23.8938 37.4679 16.3183 28.9254 16.2512 18.8162C16.415 8.28438 24.4483 0.0738536 33.8108 0C43.7365 0.402196 51.2999 8.54334 51.3705 18.8162C51.1753 29.3563 43.1828 37.561 33.8108 37.6324ZM48.0079 41.5358C60.4893 41.6919 66.8183 53.4237 66.8758 65.1555V94.081H54.64L54.6401 68.6592C54.3421 66.9018 53.2313 66.3058 52.2136 66.4781C51.2609 66.6395 50.3897 67.4738 50.3435 68.6592V94.081H16.3459V68.6592C16.0856 66.9866 15.0927 66.3435 14.1267 66.4084C13.0923 66.4781 12.0889 67.3598 12.0493 68.6592V94.081H0.000517735V65.1555C-0.0711841 52.6526 7.30979 41.6285 18.9603 41.5358H48.0079Z" fill="#16289E"/>
</svg>
