<svg width="51" height="51" viewBox="0 0 51 51" fill="none" xmlns="http://www.w3.org/2000/svg">
<path d="M7.53915 7.64286C7.53915 5.74845 8.28993 3.93164 9.62632 2.59209C10.9627 1.25255 12.7753 0.5 14.6652 0.5C16.5552 0.5 18.3677 1.25255 19.7041 2.59209C21.0405 3.93164 21.7913 5.74845 21.7913 7.64286C21.7913 9.53726 21.0405 11.3541 19.7041 12.6936C18.3677 14.0332 16.5552 14.7857 14.6652 14.7857C12.7753 14.7857 10.9627 14.0332 9.62632 12.6936C8.28993 11.3541 7.53915 9.53726 7.53915 7.64286ZM31.6929 13.3L31.8426 13.4143C33.3543 14.5375 35.248 15.0158 37.1103 14.7447C38.9725 14.4736 40.6522 13.4752 41.7827 11.9673C42.9133 10.4594 43.4029 8.56447 43.1448 6.69607C42.8866 4.82767 41.9016 3.13747 40.4048 1.99433C38.9079 0.851187 37.0208 0.347916 35.1551 0.594347C33.2894 0.840777 31.5967 1.8169 30.4464 3.3097C29.2961 4.80249 28.7816 6.69076 29.0151 8.56241C29.2486 10.4341 30.2113 12.1372 31.6929 13.3ZM19.1831 18.3571C19.6307 17.5077 20.2445 16.7575 20.988 16.1514C21.7314 15.5453 22.5892 15.0957 23.51 14.8295C24.4308 14.5634 25.3957 14.4861 26.347 14.6024C27.2983 14.7187 28.2164 15.0261 29.0464 15.5062C29.8765 15.9864 30.6013 16.6294 31.1777 17.3969C31.7541 18.1643 32.1701 19.0404 32.4008 19.9727C32.6316 20.905 32.6724 21.8744 32.5208 22.8229C32.3691 23.7714 32.0282 24.6795 31.5183 25.4929C30.5375 27.0576 28.9898 28.1804 27.2004 28.6254C25.4111 29.0704 23.5193 28.803 21.9225 27.8792C20.3257 26.9555 19.1482 25.4475 18.6374 23.6718C18.1266 21.8962 18.3222 19.9912 19.1831 18.3571ZM5.75763 18.3571H15.2709C14.6377 20.1698 14.5 22.1194 14.8722 24.0035C15.2443 25.8875 16.1128 27.6374 17.3874 29.0714H16.4467C14.6098 29.0712 12.8176 29.64 11.3155 30.6999C9.8135 31.7599 8.67496 33.2593 8.05579 34.9929C6.8598 34.5113 5.73999 33.858 4.73148 33.0536C2.05208 30.8929 0.413086 27.7 0.413086 23.7143C0.413086 22.2935 0.97617 20.9309 1.97847 19.9262C2.98076 18.9216 4.34017 18.3571 5.75763 18.3571ZM34.2619 29.0714C38.1278 29.0714 41.42 31.5393 42.6528 34.9929C43.8642 34.4964 44.983 33.85 45.9771 33.0536C48.6565 30.8929 50.2955 27.7 50.2955 23.7143C50.2955 22.2935 49.7324 20.9309 48.7301 19.9262C47.7278 18.9216 46.3684 18.3571 44.951 18.3571H35.4377C35.8296 19.475 36.0434 20.6786 36.0434 21.9286C36.0467 24.5647 35.0771 27.1089 33.3212 29.0714H34.2619ZM39.2038 35.9571C39.4639 36.5857 39.6064 37.2786 39.6064 38C39.6064 41.9857 37.971 45.1786 35.288 47.3393C32.6478 49.4643 29.1062 50.5 25.3543 50.5C21.6024 50.5 18.0608 49.4643 15.4206 47.3393C12.7412 45.1786 11.1022 41.9857 11.1022 38C11.1003 37.296 11.2373 36.5985 11.5052 35.9477C11.7731 35.2969 12.1667 34.7056 12.6634 34.2077C13.16 33.7099 13.75 33.3154 14.3992 33.0468C15.0485 32.7783 15.7443 32.641 16.4467 32.6429H34.2619C35.3205 32.6426 36.3553 32.9575 37.2351 33.5475C38.1149 34.1376 38.8001 34.9762 39.2038 35.9571Z" fill="#16289E"/>
</svg>
