<svg width="1920" height="1327" viewBox="0 0 1920 1327" fill="none" xmlns="http://www.w3.org/2000/svg">
<path fill-rule="evenodd" clip-rule="evenodd" d="M1920 0.00012207V177.942C1891.08 158.17 1776.22 233.406 1761.75 337.605C1747.27 441.804 1870.58 669.185 1839.13 850.638C1807.68 1032.09 1619.41 867.169 1561.57 748.541C1503.74 629.914 1445.9 392.659 1388.06 254.26C1330.23 115.862 925.376 158.17 867.54 177.942C809.704 197.713 751.868 276.798 694.032 355.883C636.196 434.968 388.819 1126.52 330.983 1225.38C204.195 1461.05 -11.9814 1266.54 111.153 850.638C173.946 638.549 294.304 399.014 183.448 247.43C125.612 168.345 38.8585 225.447 0 146.895V0.00012207H28.918C57.8361 0.00012207 115.672 0.00012207 173.508 0.00012207C231.344 0.00012207 289.18 0.00012207 347.016 0.00012207C404.852 0.00012207 462.688 0.00012207 520.524 0.00012207C578.36 0.00012207 636.196 0.00012207 694.032 0.00012207C751.868 0.00012207 809.704 0.00012207 867.54 0.00012207C925.376 0.00012207 983.212 0.00012207 1041.05 0.00012207C1098.88 0.00012207 1156.72 0.00012207 1214.56 0.00012207C1272.39 0.00012207 1330.23 0.00012207 1388.06 0.00012207C1445.9 0.00012207 1503.74 0.00012207 1561.57 0.00012207C1619.41 0.00012207 1677.24 0.00012207 1706.16 0.00012207H1920Z" fill="#16289E"/>
</svg>
