<svg width="49" height="50" viewBox="0 0 49 50" fill="none" xmlns="http://www.w3.org/2000/svg">
<path d="M0 5.55556V50H16.2816V45.8333H10.8544V41.6667H16.2816V37.5H5.4272V33.3333H16.2816V29.1667H10.8544V25H16.2816V20.8333H5.4272V16.6667H16.2816V5.55556H20.352V16.6667H24.4224V11.1111H28.4928V16.6667H32.5632V5.55556H36.6336V16.6667H40.704V11.1111H44.7744V16.6667H48.8448V0H5.4272C3.98782 0 2.60739 0.585316 1.58959 1.62718C0.571792 2.66905 0 4.08213 0 5.55556ZM8.1408 11.1111C7.42111 11.1111 6.73089 10.8185 6.222 10.2975C5.7131 9.77658 5.4272 9.07005 5.4272 8.33333C5.4272 7.59662 5.7131 6.89008 6.222 6.36915C6.73089 5.84821 7.42111 5.55556 8.1408 5.55556C8.86049 5.55556 9.55071 5.84821 10.0596 6.36915C10.5685 6.89008 10.8544 7.59662 10.8544 8.33333C10.8544 9.07005 10.5685 9.77658 10.0596 10.2975C9.55071 10.8185 8.86049 11.1111 8.1408 11.1111Z" fill="#16289E"/>
</svg>
