<svg width="50" height="50" viewBox="0 0 50 50" fill="none" xmlns="http://www.w3.org/2000/svg">
<path d="M0.666992 5.55556V50H16.9486V45.8333H11.5214V41.6667H16.9486V37.5H6.09419V33.3333H16.9486V29.1667H11.5214V25H16.9486V20.8333H6.09419V16.6667H16.9486V5.55556H21.019V16.6667H25.0894V11.1111H29.1598V16.6667H33.2302V5.55556H37.3006V16.6667H41.371V11.1111H45.4414V16.6667H49.5118V0H6.09419C4.65481 0 3.27438 0.585316 2.25658 1.62718C1.23878 2.66905 0.666992 4.08213 0.666992 5.55556ZM8.80779 11.1111C8.0881 11.1111 7.39789 10.8185 6.88899 10.2975C6.38009 9.77658 6.09419 9.07005 6.09419 8.33333C6.09419 7.59662 6.38009 6.89008 6.88899 6.36915C7.39789 5.84821 8.0881 5.55556 8.80779 5.55556C9.52748 5.55556 10.2177 5.84821 10.7266 6.36915C11.2355 6.89008 11.5214 7.59662 11.5214 8.33333C11.5214 9.07005 11.2355 9.77658 10.7266 10.2975C10.2177 10.8185 9.52748 11.1111 8.80779 11.1111Z" fill="#16289E"/>
</svg>
