<svg width="51" height="51" viewBox="0 0 51 51" fill="none" xmlns="http://www.w3.org/2000/svg">
<path d="M0.92627 6.05556V50.5H17.5537V46.3333H12.0113V42.1667H17.5537V38H6.46876V33.8333H17.5537V29.6667H12.0113V25.5H17.5537V21.3333H6.46876V17.1667H17.5537V6.05556H21.7106V17.1667H25.8675V11.6111H30.0243V17.1667H34.1812V6.05556H38.3381V17.1667H42.495V11.6111H46.6518V17.1667H50.8087V0.5H6.46876C4.9988 0.5 3.58905 1.08532 2.54963 2.12718C1.51021 3.16905 0.92627 4.58213 0.92627 6.05556ZM9.24001 11.6111C8.50503 11.6111 7.80015 11.3185 7.28044 10.7975C6.76073 10.2766 6.46876 9.57005 6.46876 8.83333C6.46876 8.09662 6.76073 7.39008 7.28044 6.86915C7.80015 6.34821 8.50503 6.05556 9.24001 6.05556C9.97499 6.05556 10.6799 6.34821 11.1996 6.86915C11.7193 7.39008 12.0113 8.09662 12.0113 8.83333C12.0113 9.57005 11.7193 10.2766 11.1996 10.7975C10.6799 11.3185 9.97499 11.6111 9.24001 11.6111Z" fill="#16289E"/>
</svg>
