<svg width="50" height="51" viewBox="0 0 50 51" fill="none" xmlns="http://www.w3.org/2000/svg">
<path d="M0.333496 6.05556V50.5H16.6151V46.3333H11.1879V42.1667H16.6151V38H5.7607V33.8333H16.6151V29.6667H11.1879V25.5H16.6151V21.3333H5.7607V17.1667H16.6151V6.05556H20.6855V17.1667H24.7559V11.6111H28.8263V17.1667H32.8967V6.05556H36.9671V17.1667H41.0375V11.6111H45.1079V17.1667H49.1783V0.5H5.7607C4.32131 0.5 2.94088 1.08532 1.92309 2.12718C0.905289 3.16905 0.333496 4.58213 0.333496 6.05556ZM8.4743 11.6111C7.7546 11.6111 7.06439 11.3185 6.55549 10.7975C6.04659 10.2766 5.7607 9.57005 5.7607 8.83333C5.7607 8.09662 6.04659 7.39008 6.55549 6.86915C7.06439 6.34821 7.7546 6.05556 8.4743 6.05556C9.19399 6.05556 9.8842 6.34821 10.3931 6.86915C10.902 7.39008 11.1879 8.09662 11.1879 8.83333C11.1879 9.57005 10.902 10.2766 10.3931 10.7975C9.8842 11.3185 9.19399 11.6111 8.4743 11.6111Z" fill="#16289E"/>
</svg>
